<?xml version="1.0"?>
<svg width="640" height="480" xmlns="http://www.w3.org/2000/svg" xmlns:svg="http://www.w3.org/2000/svg">
 <!-- Created with SVG-edit - https://github.com/SVG-Edit/svgedit-->
 <defs>
  <marker id="se_marker_end_svg_14" markerHeight="5" markerUnits="strokeWidth" markerWidth="5" orient="auto" refX="50" refY="50" se_type="rightarrow_o" viewBox="0 0 100 100">
   <path d="m100,50l-100,40l30,-40l-30,-40z" fill="none" stroke="#000000" stroke-width="10"/>
  </marker>
  <marker id="se_marker_end_svg_12" markerHeight="5" markerUnits="strokeWidth" markerWidth="5" orient="auto" refX="50" refY="50" se_type="rightarrow_o" viewBox="0 0 100 100">
   <path d="m100,50l-100,40l30,-40l-30,-40z" fill="none" stroke="#000000" stroke-width="10"/>
  </marker>
 </defs>
 <g class="layer">
  <title>Layer 2</title>
  <polygon cx="477.5" cy="46.5" edge="92.041054" fill="#ff7f00" id="svg_12" marker-end="url(#se_marker_end_svg_12)" orient="x" points="425.0747985839844,257.4640808105469 248.49449157714844,353.8927307128906 248.49449157714844,161.03543090820312 425.0747985839844,257.4640808105469 " shape="regularPoly" sides="3" stroke="#000000" stroke-width="0" strokeWidth="0" strokecolor="#000000" transform="rotate(-0.514836 336.785 257.464)"/>
  <polygon cx="514.5" cy="266.5" edge="54.016458" fill="#ff7f00" id="svg_14" marker-end="url(#se_marker_end_svg_14)" orient="x" points="541.5082291986062,266.5 487.4917708013938,266.5 541.5082291986062,266.5 " shape="regularPoly" sides="2" stroke="#000000" stroke-width="0" strokeWidth="0" strokecolor="#000000"/>
  <polygon cx="516.5" cy="318.5" edge="43.230648" fill="#ff7f00" id="svg_15" orient="x" points="538.115323782498,318.5 494.88467621750203,318.5 538.115323782498,318.5 " shape="regularPoly" sides="2" stroke="#000000" stroke-width="0" strokeWidth="0" strokecolor="#000000"/>
  <polygon cx="553.5" cy="81.5" fill="#ff7f00" id="svg_20" orient="point" points="NaN,NaN NaN,NaN " r="0" r2="0" shape="star" stroke="#000000" stroke-width="0" strokeWidth="0" strokecolor="#000000"/>
  <polygon cx="551.5" cy="86.5" fill="#ff7f00" id="svg_21" orient="point" points="NaN,NaN NaN,NaN " r="0" r2="0" shape="star" stroke="#000000" stroke-width="0" strokeWidth="0" strokecolor="#000000"/>
  <polygon cx="517.5" cy="108.5" fill="#ff7f00" id="svg_22" orient="point" points="NaN,NaN NaN,NaN " r="0" r2="0" shape="star" stroke="#000000" stroke-width="0" strokeWidth="0" strokecolor="#000000"/>
  <polygon cx="582.5" cy="91.5" fill="#ff7f00" id="svg_23" orient="point" points="NaN,NaN NaN,NaN " r="0" r2="0" shape="star" stroke="#000000" stroke-width="0" strokeWidth="0" strokecolor="#000000"/>
  <polygon cx="539.5" cy="78.5" fill="#ff7f00" id="svg_24" orient="point" point="3" points="NaN,NaN NaN,NaN " r="0" r2="0" shape="star" stroke="#000000" stroke-width="0" strokeWidth="0" strokecolor="#000000"/>
  <polygon cx="551.5" cy="86.5" fill="#ff7f00" id="svg_25" orient="point" point="3" points="551.5,86.5 551.5,86.5 551.5,86.5 551.5,86.5 551.5,86.5 551.5,86.5 551.5,86.5 551.5,86.5 " r="0" r2="0" shape="star" stroke="#000000" stroke-width="0" strokeWidth="0" strokecolor="#000000"/>
 </g>
 <g class="layer" display="inline">
  <title>Layer 1</title>
  <text fill="#7f00ff" font-family="Sans-serif" font-size="24" font-weight="bold" id="svg_1" stroke="#000000" stroke-width="0" text-anchor="middle" transform="matrix(4.87648 0 0 5.60385 -422.794 -1289.2)" x="153.955937" xml:space="preserve" y="286.415581">VP</text>
  <polygon cx="380.5" cy="305.5" fill="#000000" id="svg_8" orient="point" point="5" points="268.5,248.5 268.5,248.5 268.5,248.5 268.5,248.5 268.5,248.5 268.5,248.5 268.5,248.5 268.5,248.5 268.5,248.5 268.5,248.5 268.5,248.5 268.5,248.5 " r="0" r2="0" shape="star" stroke="#000000" stroke-width="5" strokeWidth="5" strokecolor="#000000"/>
 </g>
</svg>